<mxfile host="app.diagrams.net" modified="2023-07-18T05:13:58.908Z" agent="Mozilla/5.0 (Macintosh; Intel Mac OS X 10_15_7) AppleWebKit/537.36 (KHTML, like Gecko) Chrome/114.0.0.0 Safari/537.36" version="21.6.2" etag="ypFMiE_s70NovAKzpLc0" type="github">
  <diagram name="第 1 页" id="pgffrBQhj3Dr8tf497lY">
    <mxGraphModel>
      <root>
        <mxCell id="0" />
        <mxCell id="1" parent="0" />
      </root>
    </mxGraphModel>
  </diagram>
</mxfile>
